<svg xmlns="http://www.w3.org/2000/svg" xmlns:xlink="http://www.w3.org/1999/xlink" t="1665647070190" class="icon" viewBox="0 0 1024 1024" version="1.1" p-id="29721" width="16" height="16"><path d="M397.2 785.2h28.6v28.6h-28.6v-28.6z m57.2 0H483v28.6h-28.6v-28.6z m57.2 0h28.6v28.6h-28.6v-28.6z m57.3 0h28.6v28.6h-28.6v-28.6z m57.2 0h28.6v28.6h-28.6v-28.6zM397.2 670.8h28.6v28.6h-28.6v-28.6z m57.2 0H483v28.6h-28.6v-28.6z m57.2 0h28.6v28.6h-28.6v-28.6z m57.3 0h28.6v28.6h-28.6v-28.6z m57.2 0h28.6v28.6h-28.6v-28.6zM368.6 728h28.6v28.6h-28.6V728z m57.2 0h28.6v28.6h-28.6V728z m57.2 0h28.6v28.6H483V728z m57.2 0h28.6v28.6h-28.6V728z m57.3 0h28.6v28.6h-28.6V728z m185.9 0c-7.9 0-14.3-6.4-14.3-14.3s6.4-14.3 14.3-14.3 14.3 6.4 14.3 14.3-6.4 14.3-14.3 14.3z m0-57.2c-23.7 0-42.9 19.3-42.9 42.9 0 23.7 19.3 42.9 42.9 42.9 23.7 0 42.9-19.3 42.9-42.9 0.1-23.6-19.2-42.9-42.9-42.9z m-12.8 171.7c-7.1-1.1-87.3-15.5-87.3-100.2 0-28.3 11.7-52 22.7-59.9l-16.8-23.2c-20.7 14.9-34.5 48.3-34.5 83.1 0 56.4 29.5 90.7 61 109.7-27.1 3.2-56.8 4.8-89.6 4.8-159.5 0-256.3-35.4-311.8-114.4C369.8 663.3 466.6 628 626.1 628c154.1 0 241.2 33.3 297.5 114.4-35.6 51.3-83.6 83.4-153 100.1z m-174.3 81.1c-3 3-7.1 4.7-11.3 4.7-8.9 0-16-7.2-16-16v-28.4c19.5 1.1 38.7 1.6 57.2 1.6 2.8 0 5.7-0.1 8.5-0.1l-38.4 38.2zM554.6 571c0-8.1 6.6-14.7 14.7-14.7 4.5 0 8.7 2 11.5 5.5l30 37.6c-18.3 0.2-37.1 0.9-56.2 2.3V571zM155.4 810c18.8-21.4 27.2-48.9 27.2-67.6 0-18.7-8.5-46.2-27.2-67.6 53.7 7.1 94 25.3 124.4 67.6-30.4 42.2-70.7 60.5-124.4 67.6z m797.4-75.4c-72.4-112.1-192.9-133-305.4-135.1L603 544c-8.3-10.3-20.6-16.3-33.8-16.3-23.9 0-43.3 19.4-43.3 43.3v33.5C440.3 614.6 354 643.1 297 717.9c-49.3-62.4-119.5-75.7-214.6-75.7v28.6c54.6 0 71.5 52.4 71.5 71.5s-17 71.5-71.5 71.5v28.6c95.1 0 165.2-13.3 214.6-75.7 60.2 78.9 153 106.3 243.2 114.9v30.6c0 24.6 20 44.7 44.7 44.7 11.9 0 23.1-4.6 31.6-13.1l59.7-59.7c103.9-5.3 210.4-31.5 276.7-134.1l5-7.8-5.1-7.6zM636.2 323.3L507.5 452l-20.2-20.2L616 303l20.2 20.3zM579 280.4L407.3 452l-20.2-20.2 171.7-171.7 20.2 20.3z m-91.8-48.9l20.2 20.2-100.1 100.2-20.2-20.2 100.1-100.2z m-247.4 67.4c7.9 0 14.3 6.4 14.3 14.3s-6.4 14.3-14.3 14.3-14.3-6.4-14.3-14.3 6.5-14.3 14.3-14.3z m0 57.2c23.7 0 42.9-19.3 42.9-42.9 0-23.7-19.3-42.9-42.9-42.9s-42.9 19.3-42.9 42.9c0 23.6 19.3 42.9 42.9 42.9z m157.4-171.7c126.4 0 245 60.1 311.8 157.4-66.9 97.3-185.4 157.4-311.8 157.4-32.1 0-63.1-4.1-92.8-11.8 27.2-27 64.2-76.5 64.2-145.6 0-30.1-1.9-62.1-15.6-91.8l-26 12c10.8 23.4 13 48.8 13 79.8 0 68.8-44.9 116.4-67.2 135.7-69.4-25.2-129.5-71.6-173.1-135.7 68.1-100.2 176-157.4 297.5-157.4z m71.5-58V162c-14.1-2.4-28.3-4.1-42.7-5.1l42.7-30.5z m-14.3 432.8l-50.6-31.6c17-0.3 33.9-1.5 50.6-3.8v35.4z m400.6-314c-18.8 27-28.6 62.3-28.6 96.5s9.8 69.5 28.6 96.5c-42.6-18.6-80.7-51.3-111.6-96.5 30.9-45.1 69-77.8 111.6-96.5zM344.6 524.3L483 610.8v-91.9c98.4-20.2 186.2-74.3 243.1-152 55.5 76.2 131 117.9 214.6 117.9v-28.6c-55.7 0-85.8-59-85.8-114.4 0-55.5 30.1-114.4 85.8-114.4v-28.6c-83.6 0-159.1 41.7-214.6 117.9-54.1-73.9-136.2-126.6-228.8-148.9v-97l-119.9 85.6c-126.4 6-237.5 69.9-307 177.6l-5 7.8 5 7.8c63.5 98.2 161.6 160 274.2 174.7z" fill="#b91904" p-id="29722"/></svg>